<?xml version="1.0" encoding="UTF-8" standalone="no"?><svg xmlns="http://www.w3.org/2000/svg" xmlns:xlink="http://www.w3.org/1999/xlink" fill="#000000" height="450.2" preserveAspectRatio="xMidYMid meet" version="1" viewBox="0.0 24.9 501.2 450.2" width="501.2" zoomAndPan="magnify"><g fill="#202f5a" id="change1_1"><path d="M 454.261719 422.414062 L 301.050781 160.28125 L 283.996094 189.453125 C 271.816406 210.300781 271.816406 236.09375 284 256.9375 L 399.441406 454.453125 C 408.753906 470.382812 429.632812 475.046875 444.835938 464.59375 C 458.539062 455.171875 462.652344 436.773438 454.261719 422.414062"/><path d="M 227.507812 160.28125 L 264.277344 97.367188 L 233.957031 45.488281 C 224.644531 29.558594 203.765625 24.894531 188.5625 35.347656 C 174.859375 44.769531 170.746094 63.167969 179.140625 77.527344 L 227.507812 160.28125"/><path d="M 499.929688 337.480469 C 498.816406 320.886719 485.089844 307.960938 468.457031 307.851562 L 357.910156 307.132812 L 395.164062 370.871094 L 468.046875 371.34375 C 486.492188 371.464844 501.160156 355.886719 499.929688 337.480469"/><path d="M 284.089844 306.652344 L 34.070312 305.023438 C 15.332031 304.902344 0 320.136719 0 338.878906 C 0 355.15625 13.140625 368.386719 29.421875 368.488281 L 321.339844 370.390625 C 325.402344 347.558594 314.804688 324.617188 294.789062 312.910156 L 284.089844 306.652344"/><path d="M 170.03125 334.878906 L 320.449219 77.527344 C 328.839844 63.167969 324.730469 44.769531 311.023438 35.347656 C 295.820312 24.894531 274.941406 29.558594 265.632812 45.488281 L 96.769531 334.402344 L 170.03125 334.878906"/><path d="M 59.796875 397.65625 L 45.328125 422.414062 C 36.933594 436.773438 41.046875 455.171875 54.753906 464.59375 C 69.957031 475.046875 90.835938 470.382812 100.144531 454.453125 L 133.0625 398.132812 L 119.378906 390.546875 C 100.058594 379.839844 76.054688 382.703125 59.796875 397.65625"/></g></svg>