<?xml version="1.0" encoding="UTF-8" standalone="no"?><svg xmlns="http://www.w3.org/2000/svg" xmlns:xlink="http://www.w3.org/1999/xlink" fill="#ff8533" height="47.4" preserveAspectRatio="xMidYMid meet" version="1" viewBox="-1.6 226.4 501.9 47.4" width="501.9" zoomAndPan="magnify"><g id="change1_1"><path d="M 497.203125 250.769531 C 466.074219 243.535156 434.539062 238.070312 402.804688 234.3125 C 370.464844 230.480469 337.949219 228.34375 305.398438 227.359375 C 273.546875 226.394531 241.667969 226.636719 209.820312 227.6875 C 177.492188 228.753906 145.1875 230.640625 112.925781 232.945312 C 80.914062 235.234375 48.917969 237.910156 16.984375 241.089844 C 12.292969 241.554688 7.597656 242 2.90625 242.449219 C -1.550781 242.878906 -0.597656 249.671875 3.835938 249.320312 C 36.300781 246.753906 68.769531 244.183594 101.253906 241.800781 C 133.230469 239.453125 165.234375 237.496094 197.277344 236.324219 C 229.105469 235.15625 260.964844 234.726562 292.808594 235.410156 C 324.933594 236.097656 357.039062 238.007812 388.992188 241.421875 C 404.078125 243.035156 419.132812 244.988281 434.125 247.3125 C 403.8125 245.871094 373.488281 244.695312 343.148438 244.121094 C 292.414062 243.160156 241.566406 243.929688 190.984375 248.171875 C 162.464844 250.5625 134.03125 254.101562 105.816406 258.921875 C 101.519531 259.65625 102.671875 266.890625 107.011719 266.523438 C 150.109375 262.894531 193.363281 261.089844 236.613281 261.050781 C 279.613281 261.015625 322.589844 262.726562 365.453125 266.144531 C 377.542969 267.109375 389.621094 268.175781 401.683594 269.398438 C 407.554688 269.992188 413.421875 270.59375 419.285156 271.238281 C 425.871094 271.960938 432.511719 272.390625 439.082031 273.214844 C 444.097656 273.84375 445.609375 266.105469 440.574219 265.472656 C 434.65625 264.730469 428.789062 263.664062 422.863281 262.96875 C 417.484375 262.335938 412.105469 261.734375 406.722656 261.160156 C 395.941406 260.007812 385.140625 259.011719 374.335938 258.105469 C 353.082031 256.328125 331.78125 255.042969 310.472656 254.1875 C 288.628906 253.308594 266.773438 252.871094 244.925781 252.867188 C 249.769531 252.683594 254.617188 252.527344 259.464844 252.394531 C 309.761719 251.007812 360.121094 252.414062 410.371094 254.640625 C 438.714844 255.898438 467.039062 257.550781 495.367188 259.105469 C 497.5 259.222656 499.484375 257.863281 499.917969 255.734375 C 500.304688 253.835938 499.316406 251.257812 497.203125 250.769531" fill="inherit"/></g></svg>